<mxfile host="app.diagrams.net" modified="2023-10-15T18:07:10.195Z" agent="Mozilla/5.0 (Windows NT 10.0; Win64; x64) AppleWebKit/537.36 (KHTML, like Gecko) Chrome/118.0.0.0 Safari/537.36" version="22.0.4" etag="pK1YFytona0Z12t8l4Ux" type="github">
  <diagram name="Page-1" id="TTad2JaClYAbR3NJx_BB">
    <mxGraphModel>
      <root>
        <mxCell id="0" />
        <mxCell id="1" parent="0" />
      </root>
    </mxGraphModel>
  </diagram>
</mxfile>
